<?xml version="1.0" encoding="utf-8"?>
<!-- Generator: Adobe Illustrator 24.3.0, SVG Export Plug-In . SVG Version: 6.00 Build 0)  -->
<svg version="1.1" id="Calque_1" xmlns="http://www.w3.org/2000/svg" xmlns:xlink="http://www.w3.org/1999/xlink" x="0px" y="0px"
	 viewBox="0 0 56.7 56.7" style="enable-background:new 0 0 56.7 56.7;" xml:space="preserve">
<style type="text/css">
	.st0{fill:#110C0D;}
</style>
<g>
	<g>
		<path class="st0" d="M33.3,44.7h-9.9c-1.1,0-2,0.9-2,2c0,1.1,0.9,2,2,2h9.9c1.1,0,2-0.9,2-2C35.3,45.6,34.4,44.7,33.3,44.7z"/>
		<path class="st0" d="M26.8,8.1c-7.4,0.8-12.9,7.9-12.3,15.3c0.8,9.7,9.7,16.9,12.8,19.1c0.6,0.4,1.4,0.4,2,0
			c3.2-2.5,12.9-10.9,12.9-20.5C42.2,13.7,35.2,7.2,26.8,8.1z M28.3,27.4c-3,0-5.5-2.5-5.5-5.5s2.5-5.5,5.5-5.5s5.5,2.5,5.5,5.5
			S31.4,27.4,28.3,27.4z"/>
	</g>
</g>
</svg>
